<?xml version="1.0" encoding="utf-8"?>
<!-- Generator: Adobe Illustrator 25.1.0, SVG Export Plug-In . SVG Version: 6.00 Build 0)  -->
<svg version="1.1" id="Layer_1" xmlns="http://www.w3.org/2000/svg" xmlns:xlink="http://www.w3.org/1999/xlink" x="0px" y="0px"
	 viewBox="0 0 3178.427 816.738" style="enable-background:new 0 0 3178.427 816.738;" xml:space="preserve">
<style type="text/css">
	.st0{fill:#FCCE0F;}
	.st1{fill:#FFFFFF;}
	.st2{fill:none;}
	.st3{fill:#C8202E;}
</style>
<g>
	<g>
		<path d="M293.607,807.932h-32.272c-3.207,0-6.012-1.604-7.616-4.411l-34.678-57.93v53.321c0,5.011-4.011,9.02-9.022,9.02h-23.652
			c-4.811,0-8.82-4.009-8.82-9.02V676.435c0-4.811,4.009-8.82,8.82-8.82h23.652c5.011,0,9.022,4.009,9.022,8.82v52.719l33.074-57.13
			c1.604-2.805,4.609-4.409,7.816-4.409h30.671c4.009,0,6.614,4.611,4.409,8.218l-37.283,60.335l40.49,63.545
			C300.424,803.321,297.819,807.932,293.607,807.932z"/>
		<path d="M462.804,737.772c0,41.494-30.069,72.764-72.163,72.764c-42.096,0-72.163-31.27-72.163-72.764
			c0-41.292,30.067-72.562,72.163-72.562C432.735,665.21,462.804,696.481,462.804,737.772z M421.31,737.772
			c0-18.239-11.425-32.472-30.669-32.472c-19.243,0-30.671,14.233-30.671,32.472c0,18.444,11.427,32.474,30.671,32.474
			C409.885,770.247,421.31,756.216,421.31,737.772z"/>
		<path d="M576.881,802.921l-20.245-40.29h-15.237v36.281c0,5.011-4.007,9.02-9.02,9.02h-23.652c-4.811,0-8.82-4.009-8.82-9.02
			V676.435c0-4.811,4.009-8.82,8.82-8.82h48.708c38.689,0,57.53,19.443,57.53,50.314c0,17.84-7.416,30.067-20.245,37.083
			l25.458,44.901c2.206,3.607-0.402,8.018-4.611,8.018h-30.668C581.489,807.932,578.484,805.928,576.881,802.921z M541.399,730.356
			h16.036c9.222,0,15.436-3.407,15.436-12.427c0-8.42-4.611-12.629-15.436-12.629h-16.036V730.356z"/>
		<path d="M743.27,773.856c4.811,0,8.822,3.807,8.822,8.818v16.238c0,5.011-4.011,9.02-8.822,9.02h-77.573
			c-4.811,0-8.82-4.009-8.82-9.02V676.435c0-4.811,4.009-8.82,8.82-8.82h75.57c5.011,0,9.02,4.009,9.02,8.82v16.436
			c0,4.811-4.009,8.822-9.02,8.822h-42.898v19.243h36.683c4.811,0,8.82,4.007,8.82,8.818v14.635c0,5.011-4.009,9.02-8.82,9.02
			h-36.683v20.447H743.27z"/>
		<path d="M878.788,801.317l-4.409-16.036h-42.898l-4.411,16.036c-1.002,4.009-4.609,6.614-8.618,6.614h-28.265
			c-4.811,0-8.218-4.811-6.614-9.422l41.294-123.678c1.404-4.209,5.613-7.216,10.221-7.216h35.681c4.611,0,8.82,3.007,10.224,7.216
			l41.292,123.678c1.604,4.611-1.804,9.422-6.814,9.422h-28.063C883.399,807.932,879.79,805.326,878.788,801.317z M866.159,755.814
			l-13.229-47.908L839.7,755.814H866.159z"/>
		<path d="M1051.594,667.616h23.452c4.811,0,8.82,4.009,8.82,8.82v122.476c0,5.011-4.009,9.02-8.82,9.02h-22.451
			c-3.607,0-7.016-1.803-9.02-5.011l-44.501-69.757v65.748c0,5.011-4.007,9.02-8.818,9.02h-23.654c-5.011,0-9.02-4.009-9.02-9.02
			V676.435c0-4.811,4.009-8.82,9.02-8.82h22.251c3.607,0,7.014,1.804,9.02,5.011l44.701,69.757v-65.948
			C1042.575,671.625,1046.584,667.616,1051.594,667.616z"/>
		<path d="M1317.417,766.238c0,27.261-18.239,41.694-56.326,41.694h-49.712c-5.011,0-9.02-4.009-9.02-9.02V676.435
			c0-4.811,4.009-8.82,9.02-8.82h44.301c38.687,0,56.526,12.227,56.526,37.685c0,13.831-6.015,22.85-16.436,28.465v0.8
			C1309.398,740.38,1317.417,750.803,1317.417,766.238z M1243.853,698.284v24.856h10.021c10.623,0,16.238-4.611,16.238-12.427
			c0-8.42-6.414-12.429-16.238-12.429H1243.853z M1275.523,762.831c0-8.62-6.214-12.629-16.236-12.629h-15.434v25.258h15.434
			C1269.308,775.46,1275.523,771.048,1275.523,762.831z"/>
		<path d="M1468.574,766.238c0,27.261-18.242,41.694-56.328,41.694h-49.712c-5.011,0-9.02-4.009-9.02-9.02V676.435
			c0-4.811,4.009-8.82,9.02-8.82h44.299c38.689,0,56.528,12.227,56.528,37.685c0,13.831-6.012,22.85-16.438,28.465v0.8
			C1460.556,740.38,1468.574,750.803,1468.574,766.238z M1395.007,698.284v24.856h10.021c10.626,0,16.236-4.611,16.236-12.427
			c0-8.42-6.414-12.429-16.236-12.429H1395.007z M1426.678,762.831c0-8.62-6.212-12.629-16.236-12.629h-15.434v25.258h15.434
			C1420.465,775.46,1426.678,771.048,1426.678,762.831z"/>
		<path d="M1630.352,781.472l9.22,9.422c2.206,2.003,2.206,5.413,0,7.616l-11.225,11.225c-2.206,2.006-5.613,2.006-7.616,0
			l-10.024-10.021c-11.023,6.814-24.254,10.623-39.089,10.623c-41.894,0-72.162-31.27-72.162-72.565
			c0-41.492,30.269-72.762,72.162-72.762c42.096,0,72.365,31.27,72.365,72.762C1643.983,754.41,1638.97,769.445,1630.352,781.472z
			 M1580.44,769.245l-9.622-9.622c-2.006-2.206-2.006-5.613,0-7.618l11.425-11.425c2.003-2.003,5.411-2.003,7.616,0l10.224,10.423
			c1.604-4.009,2.405-8.42,2.405-13.231c0-18.439-11.627-32.472-30.871-32.472c-19.243,0-30.668,14.033-30.668,32.472
			c0,18.242,11.425,32.474,30.668,32.474C1574.825,770.247,1577.633,769.845,1580.44,769.245z"/>
		<path d="M1765.884,667.616h23.652c5.011,0,9.022,4.009,9.022,8.82v122.476c0,5.011-4.011,9.02-9.022,9.02h-23.652
			c-4.811,0-8.82-4.009-8.82-9.02V676.435C1757.064,671.625,1761.073,667.616,1765.884,667.616z"/>
		<path d="M1934.67,667.616h23.452c4.811,0,8.82,4.009,8.82,8.82v122.476c0,5.011-4.009,9.02-8.82,9.02h-22.451
			c-3.607,0-7.014-1.803-9.02-5.011l-44.499-69.757v65.748c0,5.011-4.011,9.02-8.822,9.02h-23.652c-5.011,0-9.02-4.009-9.02-9.02
			V676.435c0-4.811,4.009-8.82,9.02-8.82h22.251c3.607,0,7.016,1.804,9.02,5.011l44.701,69.757v-65.948
			C1925.65,671.625,1929.659,667.616,1934.67,667.616z"/>
		<path d="M2173.63,801.317l-4.409-16.036h-42.898l-4.411,16.036c-1.002,4.009-4.609,6.614-8.618,6.614h-28.265
			c-4.811,0-8.218-4.811-6.615-9.422l41.294-123.678c1.404-4.209,5.613-7.216,10.221-7.216h35.681c4.611,0,8.82,3.007,10.224,7.216
			l41.292,123.678c1.604,4.611-1.803,9.422-6.814,9.422h-28.063C2178.241,807.932,2174.632,805.326,2173.63,801.317z
			 M2161.001,755.814l-13.229-47.908l-13.231,47.908H2161.001z"/>
		<path d="M2416.604,762.631c2.403-2.206,6.012-2.608,8.818-0.804l22.653,15.034c3.607,2.405,4.409,7.416,1.402,10.623
			c-12.829,14.233-31.67,22.853-53.719,22.853c-42.096,0-72.163-31.27-72.163-72.565c0-41.492,30.067-72.762,72.163-72.762
			c22.048,0,40.89,8.82,53.719,23.05c3.007,3.207,2.205,8.22-1.402,10.626l-22.653,15.032c-2.805,1.806-6.415,1.404-8.818-0.8
			c-5.213-4.811-12.229-7.618-20.847-7.618c-19.243,0-30.671,14.033-30.671,32.472c0,18.242,11.427,32.474,30.671,32.474
			C2404.375,770.247,2411.392,767.441,2416.604,762.631z"/>
		<path d="M2603.234,667.616c4.811,0,8.822,4.009,8.822,8.82v74.368c0,41.694-24.054,59.534-62.141,59.534
			s-62.139-17.84-62.139-59.534v-74.368c0-4.811,4.009-8.82,8.82-8.82h23.654c5.009,0,9.02,4.009,9.02,8.82v70.759
			c0,15.636,7.816,23.052,20.645,23.052s20.649-7.416,20.649-23.052v-70.759c0-4.811,4.007-8.82,9.02-8.82H2603.234z"/>
		<path d="M2769.426,719.533c0,33.274-22.248,48.508-57.528,48.508h-16.036v30.871c0,5.011-4.011,9.02-9.02,9.02h-23.654
			c-4.811,0-8.822-4.009-8.822-9.02V676.435c0-4.811,4.011-8.82,8.822-8.82h48.71
			C2750.582,667.616,2769.426,688.263,2769.426,719.533z M2727.53,719.533c0-8.218-5.211-14.233-15.632-14.233h-16.036v28.665
			h16.036C2721.717,733.966,2727.53,728.553,2727.53,719.533z"/>
	</g>
	<g>
		<path d="M420.12,54.97c3.901,2.303,6.769,5.311,8.602,8.978s1.481,8.038-1.034,13.067l-58.167,82.633
			c-2.538,3.901-5.241,6.11-8.108,6.675c-2.867,0.611-6.369-0.376-10.482-2.914c-11.257-8.461-23.643-14.994-37.18-19.601
			c-13.561-4.606-27.897-6.91-43.032-6.91c-18.825,0-36.146,3.572-51.986,10.67c-15.84,7.145-29.495,16.874-40.964,29.283
			s-20.423,26.839-26.863,43.384c-6.416,16.498-9.636,34.172-9.636,52.973c0,18.849,3.22,36.475,9.636,52.879
			c6.44,16.404,15.394,30.74,26.863,43.008c11.469,12.268,25.124,21.998,40.964,29.095c15.84,7.098,33.161,10.67,51.986,10.67
			c15.135,0,29.589-2.35,43.361-7.051s26.275-11.328,37.533-19.789c4.136-2.538,7.568-3.572,10.317-3.102
			c2.75,0.47,5.523,2.538,8.273,6.204l58.872,84.654c2.515,5.076,2.867,9.307,1.034,12.738c-1.857,3.478-4.724,6.345-8.625,8.602
			c-21.575,14.477-44.795,25.664-69.707,33.561c-24.888,7.944-51.117,11.892-78.661,11.892c-24.324,0-47.662-3.102-70.036-9.307
			c-22.397-6.158-43.337-14.994-62.844-26.51c-19.507-11.469-37.227-25.147-53.185-41.128
			c-15.934-15.934-29.659-33.608-41.128-53.02c-11.469-19.366-20.306-40.235-26.51-62.609c-6.181-22.421-9.283-45.735-9.283-70.083
			c0-24.301,3.102-47.662,9.283-70.036c6.205-22.374,15.041-43.384,26.51-62.985c11.469-19.648,25.194-37.462,41.128-53.537
			c15.958-16.075,33.678-29.8,53.185-41.128c19.507-11.375,40.447-20.212,62.844-26.51c22.374-6.346,45.711-9.495,70.036-9.495
			c27.544,0,53.537,3.854,77.979,11.563C375.537,29.447,398.546,40.54,420.12,54.97z"/>
		<path d="M646.632,325.148c0,16.968,2.35,31.399,7.051,43.243c4.724,11.798,10.928,21.481,18.637,28.907
			c7.709,7.474,16.663,12.926,26.91,16.357c10.223,3.478,20.87,5.17,31.892,5.17c11.516,0,22.374-1.974,32.597-6.016
			c10.247-3.995,19.201-9.965,26.91-17.908s13.796-17.72,18.284-29.471c4.489-11.704,6.722-25.147,6.722-40.282V32.972
			c0-4.136,1.434-7.709,4.301-10.67c2.867-3.008,6.722-4.512,11.539-4.512h100.518c5.288,0,9.424,1.551,12.409,4.653
			c2.961,3.102,4.465,6.628,4.465,10.529v290.154c0,40.188-5.922,73.937-17.72,101.246c-11.821,27.309-27.732,49.26-47.685,65.899
			c-19.977,16.639-43.079,28.578-69.378,35.817c-26.275,7.239-53.866,10.811-82.774,10.811c-28.931,0-56.569-3.713-82.962-11.187
			c-26.393-7.427-49.565-19.601-69.542-36.475c-19.977-16.874-35.864-38.872-47.685-66.087s-17.72-60.541-17.72-100.024V32.972
			c0-3.901,1.316-7.427,3.948-10.529s5.899-4.653,9.777-4.653h103.009c3.431,0,7.051,1.457,10.811,4.324
			c3.784,2.867,5.687,6.487,5.687,10.858V325.148z"/>
		<path d="M1042.145,33.63c0-4.794,1.246-8.649,3.784-11.516c2.515-2.867,6.322-4.324,11.351-4.324h219.978
			c15.84,0,30.764,2.209,44.748,6.534c14.007,4.371,26.863,10.388,38.567,18.096c11.704,7.709,22.256,16.874,31.657,27.544
			c9.424,10.67,17.391,22.186,23.925,34.595c6.557,12.409,11.539,25.429,14.971,39.06c3.455,13.678,5.17,27.497,5.17,41.504
			c0,20.635-3.737,40.846-11.187,60.588c-7.45,19.742-18.073,37.274-31.845,52.644c-13.772,15.37-30.294,27.826-49.566,37.368
			c-19.271,9.495-40.611,14.383-64.019,14.618h-104.325v163.855c0,9.871-5.264,14.806-15.817,14.806H1057.28
			c-4.583,0-8.249-1.222-10.999-3.619c-2.75-2.397-4.136-6.11-4.136-11.187V33.63z M1301.347,184.419
			c0-6.863-1.199-13.772-3.596-20.635c-2.421-6.91-5.922-13.02-10.505-18.425c-4.606-5.405-10.153-9.824-16.71-13.255
			c-6.533-3.431-13.937-5.17-22.186-5.17h-72.997v114.971h72.997c8.249,0,15.699-1.645,22.374-4.982
			c6.651-3.337,12.221-7.615,16.686-12.926c4.489-5.264,7.92-11.328,10.341-18.237
			C1300.149,198.896,1301.347,191.751,1301.347,184.419z"/>
		<path d="M1510.678,34.309c0-4.794,1.316-8.649,3.948-11.516s6.369-4.324,11.187-4.324h228.579
			c20.188,0,39.248,3.854,57.133,11.563c17.908,7.662,33.584,18.237,47.004,31.634c13.42,13.443,24.042,29.189,31.845,47.192
			s11.704,37.321,11.704,58.003c0,17.203-2.703,33.232-8.108,47.991c-5.382,14.806-13.02,28.061-22.891,39.765
			c16.522,15.182,29.612,33.185,39.248,54.054c9.636,20.917,14.454,43.055,14.454,66.463c0,20.87-4.019,40.658-12.033,59.366
			c-8.038,18.708-18.896,35.112-32.527,49.213c-13.678,14.148-29.612,25.335-47.85,33.561
			c-18.261,8.273-37.485,12.409-57.674,12.409h-248.885c-4.583,0-8.249-1.222-11.022-3.619c-2.75-2.397-4.113-6.111-4.113-11.187
			V34.309z M1769.881,169.962c0-6.91-1.269-13.302-3.807-19.272c-2.515-5.969-6.087-11.281-10.693-15.84
			c-4.606-4.606-10.129-8.226-16.569-10.858c-6.439-2.632-13.467-3.948-21.058-3.948h-73.866v99.836h72.832
			c7.826,0,15.018-1.222,21.575-3.619c6.557-2.397,12.127-5.875,16.733-10.341c4.606-4.465,8.249-9.73,10.881-15.84
			C1768.565,184.016,1769.881,177.295,1769.881,169.962z M1788.118,369.963c0-6.91-1.316-13.772-3.972-20.682
			c-2.632-6.863-6.322-13.02-11.022-18.378c-4.724-5.405-10.364-9.824-16.921-13.255c-6.557-3.478-13.631-5.17-21.222-5.17h-91.093
			v114.971h91.093c7.591,0,14.618-1.598,21.058-4.841c6.44-3.196,12.08-7.521,16.898-12.879c4.841-5.405,8.578-11.563,11.21-18.425
			C1786.802,384.393,1788.118,377.296,1788.118,369.963z"/>
		<path d="M2542.693,34.309c0-4.794,1.246-8.649,3.784-11.516c2.515-2.867,6.322-4.324,11.351-4.324h219.978
			c15.84,0,30.764,2.209,44.748,6.534c14.007,4.371,26.863,10.388,38.567,18.096c11.704,7.709,22.256,16.874,31.657,27.544
			c9.424,10.67,17.391,22.186,23.925,34.595c6.557,12.409,11.54,25.429,14.971,39.06c3.455,13.678,5.171,27.497,5.171,41.504
			c0,20.635-3.737,40.846-11.187,60.588s-18.073,37.274-31.845,52.644c-13.772,15.37-30.294,27.826-49.566,37.368
			c-19.271,9.495-40.611,14.383-64.019,14.618h-104.325v163.855c0,9.871-5.264,14.806-15.817,14.806h-102.257
			c-4.583,0-8.249-1.222-10.999-3.619c-2.75-2.397-4.136-6.111-4.136-11.187V34.309z M2801.896,185.097
			c0-6.863-1.198-13.772-3.596-20.635c-2.421-6.91-5.923-13.02-10.505-18.425c-4.606-5.405-10.153-9.824-16.71-13.255
			c-6.533-3.431-13.937-5.17-22.186-5.17h-72.997v114.971h72.997c8.249,0,15.699-1.645,22.374-4.982
			c6.651-3.337,12.221-7.615,16.687-12.926c4.489-5.264,7.92-11.328,10.341-18.237
			C2800.697,199.574,2801.896,192.43,2801.896,185.097z"/>
		<g>
			<path class="st0" d="M2476.94,172.06c-13.936-32.323-32.821-60.447-56.75-84.326c-23.929-23.931-52.055-42.714-84.325-56.352
				c-32.323-13.637-66.842-20.483-103.559-20.483c-24.88,0-48.759,3.1-71.587,9.343c-22.831,6.194-44.114,14.987-63.845,26.326
				c-19.734,11.342-37.618,25.079-53.703,41.166c-16.087,16.084-29.874,33.919-41.365,53.501
				c-11.489,19.585-20.381,40.865-26.727,63.845c-6.343,22.98-9.539,46.909-9.539,71.739c0,24.877,3.196,48.706,9.539,71.537
				c6.346,22.878,15.238,44.16,26.727,63.892c11.491,19.734,25.278,37.618,41.365,53.705c9.177,9.177,19.109,17.395,29.467,25.068
				l-19.571-159.363c-0.398-3.207,0.597-6.437,2.765-8.87c2.146-2.433,5.22-3.827,8.472-3.827h337.755
				c3.252,0,6.349,1.394,8.494,3.827c2.146,2.455,3.141,5.685,2.743,8.915l-19.892,157.508c9.407-7.145,18.376-14.848,26.785-23.257
				c16.087-16.087,29.874-33.971,41.365-53.705c11.439-19.731,20.381-41.014,26.727-63.892c6.343-22.831,9.539-46.66,9.539-71.537
				C2497.822,239.251,2490.829,204.331,2476.94,172.06z"/>
			<path d="M2410.554,322.788c-2.145-2.434-5.242-3.827-8.494-3.827h-337.755c-3.252,0-6.326,1.393-8.472,3.827
				c-2.168,2.433-3.163,5.663-2.765,8.87l19.571,159.363c3.996,2.961,8.292,5.539,12.423,8.325
				c3.929,2.652,7.681,5.525,11.812,7.919c0.197,0.116,0.417,0.193,0.617,0.307l-20.379-165.961h312.096l-20.741,164.324
				c4.322-2.563,8.303-5.574,12.46-8.356c4.164-2.787,8.5-5.345,12.479-8.37l19.892-157.508
				C2413.696,328.473,2412.7,325.243,2410.554,322.788z"/>
			<path class="st1" d="M2411.475,257.374c-5.126-12.454-12.058-21.902-24-28.701c-8.832-5.03-19.068-6.83-27.993-11.456
				c-7.974-4.134-8.923-12.813-13.986-19.745c-7.623-10.438-18.523-15.993-31.137-17.884c-8.765-1.313-18.827-0.879-28.347,1.103
				c-0.984-1.383-2.17-2.505-3.114-3.946c-8.309-12.7-17.541-23.967-32.625-28.497c-26.979-8.099-55.71,8.243-65.645,33.664
				c-0.937,2.397-1.557,3.813-2.115,4.861c-7.283-7.988-17.776-13.416-31.848-13.416c-32.616,0-46.334,28.231-42.466,53.216
				c-9.473,0.611-18.91,1.913-28.259,5.038c-27.512,9.194-15.717,52.962,12.044,43.685c22.577-7.546,45.726-3.075,68.8-0.324
				c24.78,2.95,49.691,4.294,74.615,5.292c51.405,2.057,102.824,3.86,154.234,5.782
				C2403.017,286.548,2417.058,270.937,2411.475,257.374z"/>
			<path d="M2398.663,295.143h-339.255c-6.133,0-11.51-4.3-13.057-10.458c-5.992-23.759-3.514-43.108,7.416-57.574
				c9.946-13.191,24.619-18.657,35.444-20.916c2.144-20.77,16.29-43.436,38.888-51.343c20.331-7.106,37.078-4.154,49.309,1.968
				c2.53-5.867,6.08-11.296,10.526-15.924c9.067-9.438,26.025-20.005,55.775-16.944c31.103,3.243,46.514,19.349,53.104,34.18
				c13.126-3.061,32.597-4.263,49.379,7.834c18.961,13.665,25.638,30.609,27.905,42.415c17.01,3.061,26.517,11.697,31.683,19.131
				c15.85,22.811,6.818,54.368,5.746,57.866C2409.733,291.208,2404.532,295.143,2398.663,295.143z M2070.513,267.158h317.149
				c0.844-7.543,0.58-17.054-3.813-23.321c-3.884-5.539-11.422-8.454-22.37-8.6c-3.796-0.036-7.398-1.749-9.928-4.701
				c-2.513-2.952-3.725-6.887-3.321-10.786c0.035-0.51,1.019-17.527-17.449-30.828c-14.901-10.713-37.429-0.474-37.64-0.401
				c-4.147,2.004-8.944,1.676-12.828-0.838c-3.866-2.478-6.256-6.851-6.344-11.588c-0.123-1.895-2.109-21.062-32.966-24.305
				c-15.165-1.567-26.886,1.458-33.932,8.855c-6.027,6.268-7.574,14.43-7.011,19.969c0.65,6.377-2.97,12.389-8.769,14.576
				c-5.799,2.259-12.301,0.073-15.815-5.247c-1.16-1.676-13.109-17.491-38.765-8.563c-15.481,5.393-22.51,25.18-20.419,33.816
				c1.019,4.191,0.088,8.673-2.513,12.061c-2.601,3.389-6.607,3.644-10.754,5.32c-4.674-0.619-20.788,2.077-28.081,11.879
				C2070.918,249.849,2069.442,257.465,2070.513,267.158z"/>
		</g>
	</g>
	<g>
		<path class="st2" d="M3150,361.991c0.127-2.002,0.257-4.061,0.381-5.934c2.093-31.164,3.675-62.437,4.749-93.767
			c0.191-5.623,0.315-11.271,0.488-16.905c-0.448-10.91-1.246-21.799-1.812-32.703C3153.551,262.476,3151.489,312.223,3150,361.991z
			"/>
		<path class="st2" d="M3008.499,466.583c-4.096-22.559-7.202-45.368-9.732-68.287c-0.772-6.986-1.431-13.981-2.124-20.973
			c2.065,29.977,4.468,59.941,8.088,89.838c0.946,7.825,1.975,15.634,3.099,23.425c0.627,4.339,1.044,12.912,3.03,16.308
			c1.607,2.744,4.418,4.607,7.481,5.99c-0.202-1.139-0.412-2.274-0.604-3.402C3013.171,496.304,3010.8,479.259,3008.499,466.583z"/>
		<path class="st3" d="M3069.916,418.813c7.097-0.887,8.443-10.329,8.743-22.257l-1.557-0.002l-34.098,1.863
			c-0.064,0.613-0.148,1.149-0.205,1.775C3040.512,425.021,3054.235,420.774,3069.916,418.813z"/>
		<path class="st3" d="M3065.743,315.824c-0.062,0.612-0.148,1.149-0.205,1.774c-2.287,24.83,11.436,20.583,27.117,18.622
			c7.099-0.887,8.288-10.328,8.588-22.257l-1.4-0.002L3065.743,315.824z"/>
		<path class="st3" d="M3059.01,482.68c-0.064,0.612-0.15,1.149-0.207,1.774c-2.286,24.83,11.436,20.583,27.119,18.623
			c7.097-0.887,8.443-10.329,8.741-22.257l-1.555-0.002L3059.01,482.68z"/>
		<path class="st3" d="M3166.036,257.184c-0.431-31.086-1.267-63.261-15.957-79.76c-0.589-1.798-1.415-3.464-2.518-4.892
			c-9.571-12.39-21.141-13.381-32.521-11.408c-14.583,2.529-28.246,2.477-42.781-1.012c-6.216-1.492-11.141-0.321-17.2,1.824
			c-7.05,2.496-13.766-1.64-20.799-2.147c-11.425-0.823-20.553,9.21-26.96,25.709c-14.237,36.672-18.474,88.205-19.751,131.76
			c-1.296,44.203,0.417,91.133,5.378,134.735c0.495,25.849,3.72,53.839,17.876,65.936c16.702,14.274,35.817,14.411,53.848,12.46
			c20.327-2.202,40.868,3.006,61.089-0.855c16.212-3.095,30.749-13.796,33.266-45.673c2.719-34.42,2.281-70.431,3.872-105.163
			C3164.73,338.292,3166.598,297.765,3166.036,257.184z M3090.693,237.67c0.653-8.821,0-9.474,9.802-9.638
			c9.26-0.154,17.839-0.019,18.767-0.003c0.436-16.754,0.377-33.031-1.508-38.385c-3.448-9.801,0.145-7.514,0.145-7.514
			s17.643-1.307,18.296,14.048c0.653,15.356-4.248,72.856-2.613,87.558c0,0,2.02,4.901-6.504,5.227s-9.831-5.227-9.179-24.177
			c0.241-6.957,0.748-17.62,1.127-28.806c-5.258,1.52-8.986,5.598-16.571,9.53C3093.634,250.086,3090.04,246.492,3090.693,237.67z
			 M3061.499,203.351c-15.311,5.009-45.551,8.905-45.551,8.905s-4.977,2.783-6.507-4.452c-1.531-7.235,2.679-6.678,2.679-6.678
			l62.394-12.8c0,0,14.163-5.009,11.866,12.8c-2.298,17.808-9.57,65.67-9.57,65.67s-10.719,8.348-9.186-15.026
			c0.295-4.503,0.817-9.252,1.358-13.952c-1.757,0.433-3.844,0.834-6.706,1.191c-15.068,1.878-46.196,4.8-46.196,4.8
			s-5.961,1.669-7.285-5.217c-1.324-6.887,4.359-6.469,4.359-6.469l52.267-7.043c0,0,2.562-0.671,4.978-0.297
			C3071.662,210.749,3071.05,200.227,3061.499,203.351z M3010.861,506.894c-1.986-3.396-2.403-11.97-3.03-16.308
			c-1.124-7.791-2.153-15.6-3.099-23.425c-3.62-29.896-6.023-59.861-8.088-89.838c0.693,6.992,1.352,13.988,2.124,20.973
			c2.531,22.919,5.637,45.728,9.732,68.287c2.301,12.676,4.672,29.721,9.24,42.899c0.191,1.128,0.402,2.263,0.604,3.402
			C3015.279,511.501,3012.467,509.638,3010.861,506.894z M3031.038,411.626l-4.247-35.938c-0.172-9.148,7.643-10.46,7.643-10.46
			c15.169-3.631,12.203,6.399,9.586,24.835h34.771c0.093-12.878-0.393-25.148,4.256-24.83c9.536,0.654,8.433,6.535,3.858,29.731
			c-4.573,23.197-5.227,29.404-11.76,29.731c-6.535,0.327-12.417,5.227-29.077,3.595
			C3029.404,426.654,3031.038,411.626,3031.038,411.626z M3102.909,479.226c-4.575,23.197-5.228,29.404-11.761,29.731
			c-6.535,0.327-12.415,5.227-29.077,3.595c-16.662-1.634-15.028-16.663-15.028-16.663l-4.247-35.938
			c-0.172-9.148,7.643-10.46,7.643-10.46c15.167-3.631,12.201,6.399,9.584,24.835h34.772c0.093-12.878-0.395-25.148,4.254-24.83
			C3108.586,450.15,3107.483,456.03,3102.909,479.226z M3097.883,342.102c-6.535,0.327-12.417,5.227-29.077,3.595
			c-16.664-1.634-15.03-16.663-15.03-16.663l-4.247-35.938c-0.172-9.148,7.643-10.46,7.643-10.46
			c15.169-3.631,12.203,6.4,9.586,24.835h34.771c0.093-12.878-0.393-25.148,4.256-24.83c9.536,0.654,8.433,6.534,3.86,29.731
			C3105.069,335.568,3104.416,341.775,3097.883,342.102z M3142.612,409.642c-6.425-3.331-10.081-6.759-14.242-8.659
			c-1.007,19.22-1.981,39.08-1.114,46.885c0,0,2.02,4.9-6.504,5.227c-8.526,0.327-9.833-5.227-9.179-24.176
			c0.653-18.949,3.304-65.342-0.145-75.143c-3.449-9.801,0.145-7.514,0.145-7.514s17.643-1.307,18.296,14.048
			c0.253,5.936-0.326,18.186-1.036,31.813c3.515-0.034,9.479-0.063,15.738,0.041c9.801,0.163,9.148,0.817,9.801,9.638
			C3155.026,410.622,3151.432,414.215,3142.612,409.642z M3155.13,262.289c-1.074,31.33-2.656,62.603-4.749,93.767
			c-0.124,1.873-0.253,3.932-0.381,5.934c1.489-49.768,3.551-99.515,3.806-149.309c0.565,10.904,1.364,21.793,1.812,32.703
			C3155.445,251.018,3155.321,256.666,3155.13,262.289z"/>
	</g>
</g>
</svg>
